<svg width="600" height="600" xmlns="http://www.w3.org/2000/svg">
    <g fill="#409cff">
        <path
            d="m54.337437,472.600589q-14.076164,0 -22.492071,-8.713816q-8.490385,-8.713816 -8.490385,-22.715503l0,0l0,-284.204451q0,-14.076164 8.490385,-22.492071q8.415907,-8.490385 22.492071,-8.490385l0,0q14.523026,0 23.013411,8.490385q8.490385,8.415907 8.490385,22.492071l0,0l0,284.204451q0,14.001687 -8.490385,22.715503q-8.490385,8.713816 -23.013411,8.713816l0,0zm245.923244,1.415064q-70.157388,0 -106.502192,-36.270327q-36.270327,-36.344804 -36.270327,-106.05533l0,0l0,-174.723177q0,-14.076164 8.192476,-22.492071q8.266953,-8.490385 22.26864,-8.490385l0,0q14.076164,0 22.26864,8.490385q8.266953,8.415907 8.266953,22.492071l0,0l0,178.149121q0,44.015941 20.779099,66.582489q20.853576,22.492071 60.99671,22.492071l0,0q39.696272,0 60.549848,-22.78998q20.779099,-22.715503 20.779099,-66.284581l0,0l0,-178.149121q0,-14.076164 8.266953,-22.492071q8.192476,-8.490385 22.26864,-8.490385l0,0q14.001687,0 22.26864,8.490385q8.192476,8.415907 8.192476,22.492071l0,0l0,174.723177q0,69.263663 -36.270327,105.831899q-36.344804,36.493758 -106.05533,36.493758l0,0zm244.955042,-1.415064q-14.001687,0 -22.492071,-8.713816q-8.490385,-8.713816 -8.490385,-22.715503l0,0l0,-284.204451q0,-14.076164 8.490385,-22.492071q8.490385,-8.490385 22.492071,-8.490385l0,0q14.523026,0 23.013411,8.490385q8.415907,8.415907 8.415907,22.492071l0,0l0,284.204451q0,14.001687 -8.415907,22.715503q-8.490385,8.713816 -23.013411,8.713816l0,0z"
        />
    </g>
</svg>
